Coordinates
version=1
nRows=16
nColumns=36
inDegrees=yes

Units are S.I. units (second, meters, Newtons, ...)
If the header above contains a line with 'inDegrees', this indicates whether rotational values are in degrees (yes) or radians (no).

endheader
time	pelvis_tilt	pelvis_list	pelvis_rotation	pelvis_tx	pelvis_ty	pelvis_tz	hip_flexion_r	hip_adduction_r	hip_rotation_r	knee_angle_r	knee_angle_r_beta	ankle_angle_r	subtalar_angle_r	mtp_angle_r	hip_flexion_l	hip_adduction_l	hip_rotation_l	knee_angle_l	knee_angle_l_beta	ankle_angle_l	subtalar_angle_l	mtp_angle_l	lumbar_extension	lumbar_bending	lumbar_rotation	arm_flex_r	arm_add_r	arm_rot_r	elbow_flex_r	pro_sup_r	arm_flex_l	arm_add_l	arm_rot_l	elbow_flex_l	pro_sup_l
      0.69000000	      2.41948095	      2.90372053	     -7.04777845	      0.67435616	      0.93043398	     -0.24622749	    -17.47145945	     -3.26770874	      2.23359733	     27.60838807	      0.48185727	     -2.60206506	    -17.00313610	     -7.06233803	     21.26044111	      3.88533733	     -4.52239482	     18.06613940	      0.31531362	     -6.32592609	    -17.50577966	     -7.06233803	     -4.27284821	     -4.56616355	      5.82785503	     -2.41987397	     -5.15068259	    -14.70707682	     43.58289867	    112.15653484	    -10.16788993	     -7.41956434	    -15.59250778	     20.04573761	    104.40393825
      0.70000000	      2.50254682	      3.22201113	     -6.62420935	      0.68843195	      0.93213168	     -0.24828113	    -15.88245470	     -3.64491617	      1.92988786	     31.45832752	      0.54905139	     -6.85024887	    -19.17040074	     -7.08242153	     20.59438688	      4.58173347	     -4.14507702	     18.78059252	      0.32778318	     -5.07056979	    -17.39686170	     -7.08242153	     -4.19123686	     -4.96412222	      5.14341391	     -2.95003365	     -4.66826062	    -15.04765122	     42.86945655	    112.19302700	     -9.68462994	     -7.49412402	    -14.85981610	     20.23477948	    104.43327729
      0.71000000	      2.72339736	      3.76031688	     -6.22000696	      0.70225647	      0.93396076	     -0.25069479	    -14.13359658	     -4.47670175	      1.23025804	     35.66968997	      0.62255353	     -9.86010869	    -19.28048788	     -7.08832535	     19.59088825	      5.60971195	     -3.61005139	     19.05246341	      0.33252822	     -4.03897435	    -17.56734632	     -7.08832535	     -4.31115850	     -5.58599089	      4.45338378	     -3.52350781	     -4.30003044	    -15.21060946	     42.35022451	    112.18363451	     -9.10668367	     -7.45827052	    -14.57846340	     20.56259789	    104.48383146
      0.72000000	      2.80702080	      4.21355574	     -5.81812161	      0.71559634	      0.93556253	     -0.25302944	    -12.05043524	     -5.18493207	      0.74132685	     39.95057816	      0.69726913	    -13.22823620	    -19.84731173	     -7.09420710	     18.69647605	      6.51065841	     -3.06447523	     19.21987727	      0.33545014	     -3.06212169	    -17.67949909	     -7.09420710	     -4.33456291	     -6.08907497	      3.73273276	     -4.00228040	     -3.93823294	    -15.46681767	     41.72150832	    112.17046599	     -8.52435875	     -7.42829747	    -14.23059777	     21.02389674	    104.57351822
      0.73000000	      2.86510909	      4.59621393	     -5.47746994	      0.72846789	      0.93710425	     -0.25521596	     -9.81467053	     -5.81313954	      0.42506524	     44.13672587	      0.77033119	    -16.57317215	    -20.61162653	     -7.09981214	     17.76708872	      7.29790751	     -2.55833538	     19.24706618	      0.33592468	     -2.16369314	    -17.72348026	     -7.09981214	     -4.40127883	     -6.49316924	      3.03669761	     -4.41117715	     -3.60496606	    -15.73695927	     41.07315179	    112.16472562	     -7.89312071	     -7.37782712	    -13.85459891	     21.55873409	    104.68863459
      0.74000000	      2.78080466	      4.75090702	     -5.17370258	      0.74080295	      0.93845698	     -0.25708659	     -7.40174351	     -6.05188841	      0.35657996	     47.97768805	      0.83736862	    -20.76280963	    -23.17086701	     -7.11504173	     17.02480682	      7.74392925	     -2.22889571	     19.32426932	      0.33727213	     -1.31556576	    -17.53296331	     -7.11504173	     -4.36380731	     -6.63217144	      2.36260755	     -4.68461292	     -3.24599919	    -16.18642381	     40.23868263	    112.24821938	     -7.24433200	     -7.35099264	    -13.14305706	     22.21844140	    104.91846925
      0.75000000	      2.81262019	      4.98434254	     -4.97817284	      0.75301520	      0.93992545	     -0.25883233	     -5.08049575	     -6.49545373	      0.25432201	     51.63110309	      0.90113275	    -22.79673121	    -24.03214782	     -7.12746663	     15.99305023	      8.26406340	     -1.90964553	     19.06581930	      0.33276132	     -0.51931175	    -17.32445989	     -7.12746663	     -4.47794547	     -6.86628128	      1.81621449	     -5.02338224	     -2.99154992	    -16.41927197	     39.57645553	    112.31611437	     -6.47601657	     -7.31262187	    -12.62990936	     22.76323291	    105.09562762
      0.76000000	      2.92883208	      5.16836675	     -4.91974012	      0.76495170	      0.94157589	     -0.26032016	     -2.87335190	     -6.85406368	      0.35454803	     54.89982253	      0.95818266	    -23.49619694	    -24.51396208	     -7.13110077	     14.76299981	      8.70960257	     -1.60988459	     18.58126627	      0.32430428	      0.18863225	    -17.22327376	     -7.13110077	     -4.73656350	     -7.04396487	      1.31262455	     -5.30216567	     -2.77491072	    -16.52420034	     39.01228893	    112.31210865	     -5.62772451	     -7.23505027	    -12.34040778	     23.28169635	    105.19843628
      0.77000000	      2.77057036	      5.28727103	     -4.91041897	      0.77668355	      0.94287068	     -0.26164726	     -0.34601040	     -7.11383370	      0.41397871	     57.87459461	      1.01010223	    -23.34671420	    -25.59335850	     -7.13610132	     13.84011440	      8.99699801	     -1.56061475	     18.05983339	      0.31520356	      0.85384166	    -16.94827697	     -7.13610132	     -4.63390870	     -7.12639198	      0.94885023	     -5.57026715	     -2.60911239	    -16.70887437	     38.14617926	    112.30481280	     -4.85560335	     -7.17072072	    -11.86346963	     23.96722564	    105.35776497
      0.78000000	      2.62483876	      5.26850600	     -4.97554207	      0.78816065	      0.94430693	     -0.26269378	      2.11419274	     -7.12142071	      0.63351504	     60.39700462	      1.05412659	    -22.37019182	    -26.61209194	     -7.14229573	     12.90625826	      9.08426160	     -1.64058475	     17.56071118	      0.30649223	      1.51768865	    -16.50395680	     -7.14229573	     -4.59592043	     -7.07012638	      0.60195570	     -5.74304801	     -2.46035080	    -16.85647654	     37.22406458	    112.31483315	     -4.04405187	     -7.12387286	    -11.25863843	     24.61722986	    105.54247961
      0.79000000	      2.47289385	      5.18514742	     -5.13892692	      0.79939713	      0.94583271	     -0.26357912	      4.54799753	     -6.98434612	      1.00946198	     62.49327718	      1.09071345	    -20.58975478	    -27.30651510	     -7.14973813	     11.95284365	      9.07802847	     -1.78539145	     16.98756211	      0.29648889	      2.23542257	    -15.88726656	     -7.14973813	     -4.58101890	     -6.92631278	      0.32869177	     -5.87479980	     -2.37411098	    -16.95924979	     36.28369781	    112.33825659	     -3.19231398	     -7.08382182	    -10.54075842	     25.19796476	    105.73936164
      0.80000000	      2.27770135	      4.98389479	     -5.34113121	      0.81061267	      0.94745158	     -0.26439011	      6.92842884	     -6.66621537	      1.41694016	     64.10903057	      1.11891366	    -17.91900449	    -27.10223565	     -7.16358532	     11.01107130	      8.90471237	     -2.13210968	     16.36007922	      0.28553725	      3.14834979	    -14.92409527	     -7.16358532	     -4.48002364	     -6.62058492	      0.08785077	     -5.97766963	     -2.34324245	    -17.03101355	     35.31156734	    112.39891983	     -2.34517440	     -7.06938003	     -9.42712375	     25.62467711	    105.98499242
      0.81000000	      2.17006576	      4.70333083	     -5.54966148	      0.82159878	      0.94931920	     -0.26516984	      9.11649143	     -6.16623547	      1.84557771	     65.16543615	      1.13735142	    -16.24240445	    -27.81249006	     -7.16762473	      9.88157514	      8.71863672	     -2.16812358	     15.53497760	      0.27113651	      3.58116206	    -14.58901708	     -7.16762473	     -4.59478720	     -6.25558635	     -0.04756541	     -6.22742063	     -2.35363665	    -17.10499559	     34.65007382	    112.38482460	     -1.33544011	     -6.93292660	     -9.04409541	     26.18821692	    106.08842978
      0.82000000	      1.96797611	      4.43487847	     -5.75649754	      0.83252246	      0.95103809	     -0.26589198	     11.35309974	     -5.68337777	      2.25341334	     65.90931550	      1.15033456	    -13.33871260	    -26.76658054	     -7.18111696	      8.92212754	      8.48234301	     -2.50347476	     14.82805360	      0.25879836	      4.34355579	    -13.57877531	     -7.18111696	     -4.52902539	     -5.88641533	     -0.26949793	     -6.26791609	     -2.35162248	    -17.27631998	     33.61611893	    112.39486440	     -0.42024180	     -6.98153226	     -7.81926412	     26.68721833	    106.31651940
      0.83000000	      1.78458439	      3.99469730	     -5.90081130	      0.84339619	      0.95293701	     -0.26672136	     13.36378347	     -4.93756998	      2.57154006	     65.98538676	      1.15166226	    -12.31197413	    -27.09881177	     -7.18349161	      7.84836789	      8.13553285	     -2.48092176	     13.95522080	      0.24356455	      4.60345486	    -13.32364611	     -7.18349161	     -4.58850306	     -5.31385397	     -0.46946849	     -6.54531464	     -2.41107161	    -17.34953507	     33.15819788	    112.37843706	      0.56383177	     -6.79524269	     -7.54904144	     27.25298457	    106.39775278
      0.84000000	      1.70766570	      3.64476174	     -5.96550805	      0.85432228	      0.95490444	     -0.26769138	     15.13053847	     -4.37868835	      2.79838372	     65.73254088	      1.14724926	     -9.83026637	    -25.72378319	     -7.19652508	      6.66280105	      7.88346437	     -2.65455148	     13.08928226	      0.22845107	      5.24899079	    -12.31127017	     -7.19652508	     -4.69043206	     -4.83993183	     -0.73685762	     -6.63289814	     -2.47110557	    -17.65936317	     32.23610689	    112.38001713	      1.52368074	     -6.83265422	     -6.29802785	     27.84454921	    106.62971602
